<svg width="48" height="48" viewBox="0 0 48 48" fill="none" xmlns="http://www.w3.org/2000/svg">
    <path d="M13.3592 6.64076L14.5858 5.41421C15.3668 4.63317 16.6332 4.63316 17.4142 5.41421L22.5858 10.5858C23.3668 11.3668 23.3668 12.6332 22.5858 13.4142L19.001 16.999C18.4032 17.5968 18.255 18.51 18.6331 19.2661C20.8186 23.6372 24.3628 27.1814 28.7339 29.3669C29.49 29.745 30.4032 29.5968 31.001 28.999L34.5858 25.4142C35.3668 24.6332 36.6332 24.6332 37.4142 25.4142L42.5858 30.5858C43.3668 31.3668 43.3668 32.6332 42.5858 33.4142L41.3592 34.6408C37.1365 38.8635 30.4514 39.3386 25.674 35.7555L23.2571 33.9429C19.7701 31.3276 16.6724 28.2299 14.0571 24.7429L12.2445 22.326C8.66144 17.5486 9.13654 10.8635 13.3592 6.64076Z" fill="#F9F6EE"/>
</svg>
